inDegrees=yes
name=ik_S50_A06_T01
DataType=double
version=3
OpenSimVersion=4.3-2021-08-27-4bc7ad9
endheader
time	pelvis_tilt	pelvis_list	pelvis_rotation	pelvis_tx	pelvis_ty	pelvis_tz	hip_flexion_r	hip_adduction_r	hip_rotation_r	knee_angle_r	knee_angle_r_beta	ankle_angle_r	subtalar_angle_r	mtp_angle_r	hip_flexion_l	hip_adduction_l	hip_rotation_l	knee_angle_l	knee_angle_l_beta	ankle_angle_l	subtalar_angle_l	mtp_angle_l	lumbar_extension	lumbar_bending	lumbar_rotation	arm_flex_r	arm_add_r	arm_rot_r	elbow_flex_r	pro_sup_r	wrist_flex_r	wrist_dev_r	arm_flex_l	arm_add_l	arm_rot_l	elbow_flex_l	pro_sup_l	wrist_flex_l	wrist_dev_l
15.49999999999976	-5.314930312791353	-0.763258959079668	26.06023861501382	0	0.9399999999999999	0	41.41388660284765	-11.58680876131187	-11.06508759769768	49.11077077992463	0.8571446483019083	0	0	0	41.41388660284765	-11.58680876131187	-11.06508759769768	49.11077077992463	0.8571446483019083	0	0	0	-4.596618469573021	-0.7608523088499378	4.770777837759611	12.83871782307345	-6.295105021474672	-2.553803918333908	57.73771658007055	106.7972187129973	0	0	63.24839609957153	11.10476633839938	23.67302251245246	34.02222322148776	89.72905856094454	0	0
15.51999999999976	-5.31589725512118	-0.7587742092622121	26.08617941472175	0	0.9399999999999999	0	41.41811610674994	-11.58072242841983	-11.06239691235545	49.1155054263529	0.8572272834709993	0	0	0	41.41811610674994	-11.58072242841983	-11.06239691235545	49.1155054263529	0.8572272834709993	0	0	0	-4.59586849566418	-0.7549172837864215	4.773481662371176	12.8223100854555	-6.330353147494763	-2.521413396309066	57.75567845598035	106.7742695966461	0	0	63.26802956779179	11.08708591106732	23.7243032479789	34.02536023422107	89.69216610036295	0	0
15.53999999999976	-5.31056405674565	-0.750240512764148	26.11398759941529	0	0.9399999999999999	0	41.40930254175159	-11.59237488642607	-11.06780738846046	49.10557288046509	0.8570539278421516	0	0	0	41.40930254175159	-11.59237488642607	-11.06780738846046	49.10557288046509	0.8570539278421516	0	0	0	-4.58640845721209	-0.754035282365315	4.784641811179537	12.82549533408688	-6.326465644610922	-2.559894534671561	57.71817624956086	106.808624242664	0	0	63.27918080472486	11.07081072628372	23.78423352515742	33.82918661777618	89.74025893302144	0	0
15.55999999999976	-5.313362485084212	-0.7470258062574373	26.12991251069887	0	0.9399999999999999	0	41.40641567702345	-11.59556926805765	-11.06944187371598	49.10226046197739	0.8569961152333374	0	0	0	41.40641567702345	-11.59556926805765	-11.06944187371598	49.10226046197739	0.8569961152333374	0	0	0	-4.587226286423688	-0.751231434653816	4.786605360397503	12.82995716980004	-6.332028794943261	-2.579525291485255	57.71439228704063	106.8167687562665	0	0	63.30947609305721	11.05717870032338	23.79825918114582	33.72536002837094	89.8172129980388	0	0
15.57999999999976	-5.316389005711518	-0.7384067029114516	26.12498013281093	0	0.9399999999999999	0	41.40191663871475	-11.60079901725404	-11.07204078183555	49.0971206589168	0.8569064087470261	0	0	0	41.40191663871475	-11.60079901725404	-11.07204078183555	49.0971206589168	0.8569064087470261	0	0	0	-4.585756457952038	-0.7440234519474943	4.787431151474583	12.85545435637731	-6.322098655124823	-2.596519111355689	57.6995586547173	106.8248875364656	0	0	63.32071955291467	11.05943741682206	23.78284400440111	33.59116650304837	89.93282255579359	0	0
15.59999999999976	-5.318359870894024	-0.7319206356303296	26.12060284093693	0	0.9399999999999999	0	41.40380766267478	-11.5963982845528	-11.07044447021377	49.09904740083626	0.8569400367373567	0	0	0	41.40380766267478	-11.5963982845528	-11.07044447021377	49.09904740083626	0.8569400367373567	0	0	0	-4.584852698126316	-0.7363692143996997	4.784404346141259	12.86544179568095	-6.324860962834374	-2.59984013021991	57.70755874649664	106.817725962332	0	0	63.34282988484167	11.04609312212195	23.77316602724007	33.58704512978031	89.95279071314737	0	0
15.61999999999976	-5.3253194496108	-0.7220165578259151	26.10535381368473	0	0.9399999999999999	0	41.39984141131792	-11.60071745665301	-11.07266582571822	49.09447761355518	0.8568602789031862	5.287717523039723e-35	0	0	41.39984141131792	-11.60071745665301	-11.07266582571822	49.09447761355518	0.8568602789031862	5.287717523039723e-35	0	0	-4.58636193189974	-0.7262397052512116	4.787429107980566	12.88405661176368	-6.319045881991808	-2.608891452742589	57.6848332947431	106.8397948473025	0	5.38806921148701e-36	63.33681436723593	11.05726539497682	23.79719594632736	33.50385948866257	89.98094645004747	0	5.38806921148701e-36
15.63999999999976	-5.332872789138535	-0.714070485067569	26.08697538237922	0	0.9399999999999999	0	41.39736450430813	-11.60308266173438	-11.07397838442397	49.09158936727844	0.8568098694960486	0	0	0	41.39736450430813	-11.60308266173438	-11.07397838442397	49.09158936727844	0.8568098694960486	0	0	0	-4.589446261046931	-0.7166566471147018	4.786314803498637	12.89399778655467	-6.310085938206353	-2.613019511937417	57.67266704832517	106.8544176618053	0	0	63.33682416965662	11.07402618549657	23.81679498204294	33.44719628453279	90.00576920084731	0	0
15.65999999999976	-5.342409380626981	-0.7111041135289197	26.06530523741087	0	0.9399999999999999	0	41.39811182023108	-11.60123975061922	-11.07332729506439	49.09234552361667	0.8568230669138106	0	0	0	41.39811182023108	-11.60123975061922	-11.07332729506439	49.09234552361667	0.8568230669138106	0	0	0	-4.596861215127584	-0.7088956459307002	4.77945008470099	12.90964305037855	-6.323811861639285	-2.593991583753491	57.67603139628105	106.8501213945376	0	0	63.32799650556556	11.07957521521217	23.82698107313358	33.42795686958355	90.02885908797315	0	0
15.67999999999975	-5.355127856983214	-0.7037897349592055	26.04112689234951	0	0.9399999999999999	0	41.39197074421672	-11.60972326190733	-11.07718847778989	49.08547868262821	0.8567032179293511	0	0	0	41.39197074421672	-11.60972326190733	-11.07718847778989	49.08547868262821	0.8567032179293511	0	0	0	-4.604367906189148	-0.7002835893401674	4.793536359150953	12.94147758936912	-6.312104918271973	-2.602092533250661	57.65540414476327	106.8255688378417	0	0	63.36024208868663	11.14117596472094	23.77720515300425	33.24416005816085	90.20976236552013	0	0
15.69999999999975	-5.368678337719884	-0.6935779607225339	26.00418710455821	0	0.9399999999999999	0	41.39202056265344	-11.60965118813021	-11.07715678506747	49.08553743959014	0.8567042434317952	0	0	0	41.39202056265344	-11.60965118813021	-11.07715678506747	49.08553743959014	0.8567042434317952	0	0	0	-4.612237575524881	-0.6839207265239474	4.780208152811127	12.94210892938421	-6.299596707907337	-2.611366504006206	57.65548263175765	106.8237054981472	0	0	63.3595494756497	11.14650858702508	23.77954586990032	33.24062279644753	90.21492567414717	0	0
15.71999999999975	-5.37760280782268	-0.6941062890880544	25.99308240250305	0	0.9399999999999999	0	41.3850342288162	-11.61841235408625	-11.08134184989055	49.07761802604477	0.8565660235906015	0	0	0	41.3850342288162	-11.61841235408625	-11.08134184989055	49.07761802604477	0.8565660235906015	0	0	0	-4.6196496682241	-0.6847944176319949	4.798127758729287	12.97462619280515	-6.273783752286826	-2.669408136500599	57.60402168548821	106.8739737409384	0	0	63.38606073730197	11.23600966213566	23.80050303400235	33.1171062476711	90.31813485535179	0	0
15.73999999999975	-5.384678270225036	-0.688431264374548	25.96005822217249	0	0.9399999999999999	0	41.38547911360716	-11.61771943955078	-11.08104490237054	49.07811060386987	0.8565746206954716	0	0	0	41.38547911360716	-11.61771943955078	-11.08104490237054	49.07811060386987	0.8565746206954716	0	0	0	-4.623633186847131	-0.6759515686986656	4.793164382702822	12.98854729256263	-6.270168565347436	-2.6636316975172	57.60313149952538	106.8806176712935	0	0	63.37063852078622	11.30796435499496	23.84425048798719	33.06644627850585	90.26181263528353	0	0
15.75999999999975	-5.387768794232548	-0.6866913712840883	25.9445027186828	0	0.9399999999999999	0	41.38149357778993	-11.62324300509307	-11.08355776347961	49.07365370995132	0.8564968332221808	0	0	0	41.38149357778993	-11.62324300509307	-11.08355776347961	49.07365370995132	0.8564968332221808	0	0	0	-4.62511231536747	-0.6759422829690213	4.809194775422032	12.99780851592443	-6.261051319034078	-2.704947888737491	57.56653686535571	106.9045420545444	0	0	63.38292963673437	11.38681334017183	23.94565862279186	32.96955226694368	90.12633734238877	0	0
15.77999999999975	-5.396197957204665	-0.6840855575548755	25.91471521485696	0	0.9399999999999999	0	41.38218637186069	-11.62198998861996	-11.08306346873248	49.07440672255654	0.8565099757714509	0	0	0	41.38218637186069	-11.62198998861996	-11.08306346873248	49.07440672255654	0.8565099757714509	0	0	0	-4.631666259079665	-0.6692973442143472	4.805643898102337	13.01565760622326	-6.256166231950975	-2.69286005368929	57.56187581587496	106.9091556990937	0	0	63.40721169474487	11.43362596702801	24.01607470003567	32.95327040400674	90.08641935913391	0	0
15.79999999999975	-5.400354340639296	-0.6848003329043176	25.89558684731633	0	0.9399999999999999	0	41.38336800791847	-11.62014176689916	-11.08227262244623	49.0757109519368	0.8565327388683378	0	0	0	41.38336800791847	-11.62014176689916	-11.08227262244623	49.0757109519368	0.8565327388683378	0	0	0	-4.63555919981949	-0.6699434221416728	4.832281328365635	13.0453199641025	-6.256184232557836	-2.71855418536036	57.53218173318986	106.9035652589781	0	0	63.42109932371255	11.53964933858443	24.1874183893082	32.89115345334869	89.82022369388791	0	0
15.81999999999975	-5.407963418001226	-0.6791171040061369	25.8574063862023	0	0.9399999999999999	0	41.38371323633194	-11.61960851274687	-11.08204345282157	49.07609632148562	0.8565394648358017	0	0	0	41.38371323633194	-11.61960851274687	-11.08204345282157	49.07609632148562	0.8565394648358017	0	0	0	-4.640002061928926	-0.6611220345811383	4.829845163396716	13.05776084953654	-6.272517966436696	-2.667027738484821	57.53613688310953	106.9142321774861	0	0	63.44638708345182	11.59355379312921	24.28506129946379	32.87899795969269	89.77487190607752	0	0
15.83999999999975	-5.41547488298677	-0.6766248970491147	25.81115908605118	0	0.9399999999999999	0	41.38490218219414	-11.6177646935971	-11.08125203821052	49.07741786401608	0.8565625301041634	0	0	0	41.38490218219414	-11.6177646935971	-11.08125203821052	49.07741786401608	0.8565625301041634	0	0	0	-4.645159429962741	-0.6600477217242491	4.886723450330732	13.06638051875218	-6.270225998783155	-2.662948361201344	57.54104683624031	106.888113535922	0	0	63.46316964774078	11.77011614518323	24.45759866647479	32.71871736587949	89.19387221078053	0	0
15.85999999999975	-5.429913939754498	-0.6719808901991591	25.77275392107662	0	0.9399999999999999	0	41.38589700995627	-11.61621930851908	-11.08058901744313	49.07852124089482	0.8565817876635876	0	0	0	41.38589700995627	-11.61621930851908	-11.08058901744313	49.07852124089482	0.8565817876635876	0	0	0	-4.655988845731548	-0.6512002855928271	4.910598716719071	13.09701308316247	-6.303454175040598	-2.611725132541733	57.55192387585328	106.8679468905979	0	0	63.503733540917	11.90529460158889	24.57610466737049	32.60874482619057	88.90342183430849	0	0
15.87999999999975	-5.434745566176791	-0.6682848719621023	25.73647567953437	0	0.9399999999999999	0	41.38637139920563	-11.61548938666612	-11.08027481515876	49.07905188607168	0.8565910491690838	0	0	0	41.38637139920563	-11.61548938666612	-11.08027481515876	49.07905188607168	0.8565910491690838	0	0	0	-4.658687679807598	-0.6463943978755091	4.920229696740945	13.12147902661504	-6.316333371578351	-2.546589832099192	57.55917864459816	106.8617260985896	0	0	63.52759397260869	12.01969440538122	24.65208490151405	32.51021908969703	88.79986533837079	0	0
15.89999999999975	-5.444988692487514	-0.6718042826868369	25.71052256571992	0	0.9399999999999999	0	41.38728867062857	-11.61406285576136	-11.07966293314304	49.0800674343228	0.8566087738297786	0	0	0	41.38728867062857	-11.61406285576136	-11.07966293314304	49.0800674343228	0.8566087738297786	0	0	0	-4.669276207242142	-0.6471235637448777	4.948052354300033	13.13976819680354	-6.306919242230374	-2.569947676918522	57.56256247094692	106.8400105375116	0	0	63.59305774300449	12.16578475810018	24.78438333654461	32.15234310638136	88.69736900731402	0	0
15.91999999999975	-5.459016518339599	-0.6696638517432394	25.6778883205846	0	0.9399999999999999	0	41.3884480403702	-11.61225599352787	-11.07888839271697	49.08134783609047	0.8566311210563728	0	0	0	41.3884480403702	-11.61225599352787	-11.07888839271697	49.08134783609047	0.8566311210563728	0	0	0	-4.680904365137096	-0.6405452855152747	4.970252212076281	13.17088832012574	-6.308502971447174	-2.55152235323381	57.55800177498827	106.8400183911422	0	0	63.67925779250405	12.34796768961367	24.89725629029732	31.8808790027699	88.68940720199086	0	0
